<?xml version="1.0" encoding="utf-8"?>
<!-- Generator: Adobe Illustrator 16.0.0, SVG Export Plug-In . SVG Version: 6.00 Build 0)  -->
<!DOCTYPE svg PUBLIC "-//W3C//DTD SVG 1.1//EN" "http://www.w3.org/Graphics/SVG/1.1/DTD/svg11.dtd">
<svg version="1.1"
	 id="svg35006" xmlns:rdf="http://www.w3.org/1999/02/22-rdf-syntax-ns#" xmlns:dc="http://purl.org/dc/elements/1.1/" xmlns:cc="http://creativecommons.org/ns#" xmlns:svg="http://www.w3.org/2000/svg" xmlns:sodipodi="http://sodipodi.sourceforge.net/DTD/sodipodi-0.dtd" xmlns:inkscape="http://www.inkscape.org/namespaces/inkscape" sodipodi:docname="apprenant2.svg" inkscape:version="0.48.3.1 r9886"
	 xmlns="http://www.w3.org/2000/svg" xmlns:xlink="http://www.w3.org/1999/xlink" x="0px" y="0px" width="77.164px" height="100px"
	 viewBox="-27.019 -35.016 77.164 100" enable-background="new -27.019 -35.016 77.164 100" xml:space="preserve">
  <style type="text/css">
    path {fill:#fff}
    circle {fill:#fff}
  </style>
<path id="path34990" d="M11.563-35.016c-8.006,0-14.494,6.475-14.494,14.494c0,8.023,6.488,14.599,14.494,14.599
	c8.007,0,14.494-6.576,14.494-14.599C26.057-28.541,19.57-35.016,11.563-35.016z M0.197-3.212
	c-12.9,2.297-22.106,4.764-22.106,11.991v1.668l0.104,2.398c11.308-0.033,23.11,4.295,33.368,8.134
	c10.365-3.881,22.266-8.355,33.681-8.238l-0.104-2.294L45.035,8.78c0-7.211-9.229-9.685-22.106-11.991
	c-3.037,2.685-7,4.275-11.366,4.275C7.193,1.063,3.234-0.527,0.197-3.212z M-25.246,17.748c-0.609,0-1.18,0.071-1.773,0.104v38.582
	c10.646,0.544,21.565,3.076,36.914,8.551V26.09c-11.073-4.129-23.211-8.41-34.515-8.342c-0.036,0.003-0.072,0.003-0.104,0H-25.246z
	 M45.348,18.06c-10.613,0.459-21.81,4.21-32.117,8.029v38.895c15.349-5.471,26.265-8.007,36.914-8.551V18.06
	C48.564,17.966,46.961,17.992,45.348,18.06z"/>
</svg>
