<svg xmlns="http://www.w3.org/2000/svg" xmlns:xlink="http://www.w3.org/1999/xlink" version="1.1" id="Layer_1" x="0px" y="0px" width="100px" height="100px" viewBox="0 0 100 100" enable-background="new 0 0 100 100" xml:space="preserve">
	  <style type="text/css">
    path {fill:#fff}
  </style>

<g>
	<path d="M80.075,4.394H21.871c-4.844,0-8.769,4.229-8.769,9.448v72.948c0,5.217,3.925,9.446,8.769,9.446h58.205   c4.839,0,8.767-4.229,8.767-9.446V13.841C88.842,8.622,84.914,4.394,80.075,4.394z M50.021,93.541   c-1.845,0-3.337-1.495-3.337-3.339c0-1.847,1.492-3.342,3.337-3.342c1.843,0,3.341,1.495,3.341,3.342   C53.361,92.046,51.863,93.541,50.021,93.541z M81.048,83.38H21.626V14.104h59.422V83.38z"/>
</g>
</svg>